<?xml version="1.0" encoding="UTF-8" standalone="no"?>
<!-- Created with Inkscape (http://www.inkscape.org/) -->

<svg
   xmlns:dc="http://purl.org/dc/elements/1.1/"
   xmlns:cc="http://creativecommons.org/ns#"
   xmlns:rdf="http://www.w3.org/1999/02/22-rdf-syntax-ns#"
   xmlns:svg="http://www.w3.org/2000/svg"
   xmlns="http://www.w3.org/2000/svg"
   xmlns:sodipodi="http://sodipodi.sourceforge.net/DTD/sodipodi-0.dtd"
   xmlns:inkscape="http://www.inkscape.org/namespaces/inkscape"
   width="210mm"
   height="297mm"
   viewBox="0 0 744.09448819 1052.3622047"
   id="svg2"
   version="1.1"
   inkscape:version="0.91 r13725"
   sodipodi:docname="highPressureFastingPhaseIII.svg"
   inkscape:export-filename="D:\CurrentProjects\Bio\BioGI.github.io\Documentation\meetings\Oct2015\highPressureFastingPhaseIII.png"
   inkscape:export-xdpi="90"
   inkscape:export-ydpi="90">
  <defs
     id="defs4">
    <marker
       inkscape:stockid="Arrow1Lend"
       orient="auto"
       refY="0.0"
       refX="0.0"
       id="marker4594"
       style="overflow:visible;"
       inkscape:isstock="true">
      <path
         id="path4596"
         d="M 0.0,0.0 L 5.0,-5.0 L -12.5,0.0 L 5.0,5.0 L 0.0,0.0 z "
         style="fill-rule:evenodd;stroke:#000000;stroke-width:1pt;stroke-opacity:1;fill:#000000;fill-opacity:1"
         transform="scale(0.8) rotate(180) translate(12.5,0)" />
    </marker>
    <marker
       inkscape:isstock="true"
       style="overflow:visible;"
       id="marker4528"
       refX="0.0"
       refY="0.0"
       orient="auto"
       inkscape:stockid="Arrow1Lend"
       inkscape:collect="always">
      <path
         transform="scale(0.8) rotate(180) translate(12.5,0)"
         style="fill-rule:evenodd;stroke:#000000;stroke-width:1pt;stroke-opacity:1;fill:#000000;fill-opacity:1"
         d="M 0.0,0.0 L 5.0,-5.0 L -12.5,0.0 L 5.0,5.0 L 0.0,0.0 z "
         id="path4530" />
    </marker>
    <marker
       inkscape:stockid="Arrow1Lend"
       orient="auto"
       refY="0.0"
       refX="0.0"
       id="Arrow1Lend"
       style="overflow:visible;"
       inkscape:isstock="true"
       inkscape:collect="always">
      <path
         id="path4215"
         d="M 0.0,0.0 L 5.0,-5.0 L -12.5,0.0 L 5.0,5.0 L 0.0,0.0 z "
         style="fill-rule:evenodd;stroke:#000000;stroke-width:1pt;stroke-opacity:1;fill:#000000;fill-opacity:1"
         transform="scale(0.8) rotate(180) translate(12.5,0)" />
    </marker>
    <marker
       inkscape:stockid="Arrow1Lstart"
       orient="auto"
       refY="0.0"
       refX="0.0"
       id="Arrow1Lstart"
       style="overflow:visible"
       inkscape:isstock="true">
      <path
         id="path4212"
         d="M 0.0,0.0 L 5.0,-5.0 L -12.5,0.0 L 5.0,5.0 L 0.0,0.0 z "
         style="fill-rule:evenodd;stroke:#000000;stroke-width:1pt;stroke-opacity:1;fill:#000000;fill-opacity:1"
         transform="scale(0.8) translate(12.5,0)" />
    </marker>
  </defs>
  <sodipodi:namedview
     id="base"
     pagecolor="#ffffff"
     bordercolor="#666666"
     borderopacity="1.0"
     inkscape:pageopacity="0.0"
     inkscape:pageshadow="2"
     inkscape:zoom="1.979899"
     inkscape:cx="282.52381"
     inkscape:cy="520.45785"
     inkscape:document-units="px"
     inkscape:current-layer="layer1"
     showgrid="false"
     inkscape:window-width="1366"
     inkscape:window-height="745"
     inkscape:window-x="-8"
     inkscape:window-y="-8"
     inkscape:window-maximized="1" />
  <metadata
     id="metadata7">
    <rdf:RDF>
      <cc:Work
         rdf:about="">
        <dc:format>image/svg+xml</dc:format>
        <dc:type
           rdf:resource="http://purl.org/dc/dcmitype/StillImage" />
        <dc:title></dc:title>
      </cc:Work>
    </rdf:RDF>
  </metadata>
  <g
     inkscape:label="Layer 1"
     inkscape:groupmode="layer"
     id="layer1">
    <path
       style="fill:none;fill-rule:evenodd;stroke:#000000;stroke-width:1px;stroke-linecap:butt;stroke-linejoin:miter;stroke-opacity:1"
       d="m 41.428571,470.93363 c 0,0 58.421802,-2.0454 81.377809,8.5863 22.82124,11.96954 10.81047,54.57247 41.29297,54.18705 30.7748,-0.30897 20.99985,-41.30308 37.42843,-53.98692 20.20304,-12.6269 79.30905,-10.10152 79.30905,-10.10152"
       id="path3370"
       inkscape:connector-curvature="0"
       sodipodi:nodetypes="ccccc"
       inkscape:export-xdpi="90"
       inkscape:export-ydpi="90" />
    <path
       style="fill:none;fill-rule:evenodd;stroke:#000000;stroke-width:1px;stroke-linecap:butt;stroke-linejoin:miter;stroke-opacity:1"
       d="m 41.413279,601.65186 c 0,0 58.421802,2.0454 81.377811,-8.5863 22.82123,-11.96954 10.81047,-54.57247 41.29296,-54.18705 30.7748,0.30897 20.99985,41.30308 37.42843,53.98692 20.20304,12.6269 79.30905,10.10152 79.30905,10.10152"
       id="path3370-0"
       inkscape:connector-curvature="0"
       sodipodi:nodetypes="ccccc"
       inkscape:export-xdpi="90"
       inkscape:export-ydpi="90" />
    <ellipse
       style="fill:#ff0000;fill-rule:evenodd;stroke:#000000;stroke-width:1px;stroke-linecap:butt;stroke-linejoin:miter;stroke-opacity:1"
       id="path3404"
       cx="263.90234"
       cy="503.3443"
       rx="3.2829957"
       ry="3.0304577"
       inkscape:export-xdpi="90"
       inkscape:export-ydpi="90" />
    <path
       style="fill:none;fill-rule:evenodd;stroke:#000000;stroke-width:1px;stroke-linecap:butt;stroke-linejoin:miter;stroke-opacity:1;marker-end:url(#Arrow1Lend)"
       d="m 259.6092,505.86968 c 0,0 -41.41625,25.75889 -87.37819,29.7995 -48.48732,5.05076 -76.771594,0.50508 -110.106628,-10.6066 -12.121831,-5.05077 -24.243662,-17.1726 -24.243662,-17.1726"
       id="path3406"
       inkscape:connector-curvature="0"
       sodipodi:nodetypes="cccc"
       inkscape:export-xdpi="90"
       inkscape:export-ydpi="90" />
    <ellipse
       style="fill:none;fill-rule:evenodd;stroke:#0000ff;stroke-width:1px;stroke-linecap:butt;stroke-linejoin:miter;stroke-opacity:1"
       id="path4514"
       cx="167.18025"
       cy="535.41663"
       rx="16.667517"
       ry="15.909903"
       inkscape:export-xdpi="90"
       inkscape:export-ydpi="90" />
    <text
       xml:space="preserve"
       style="font-style:normal;font-weight:normal;font-size:40px;line-height:125%;font-family:sans-serif;letter-spacing:0px;word-spacing:0px;fill:#000000;fill-opacity:1;stroke:none;stroke-width:1px;stroke-linecap:butt;stroke-linejoin:miter;stroke-opacity:1"
       x="108.5914"
       y="446.27069"
       id="text4516"
       sodipodi:linespacing="125%"
       inkscape:export-xdpi="90"
       inkscape:export-ydpi="90"><tspan
         sodipodi:role="line"
         id="tspan4518"
         x="108.5914"
         y="446.27069"
         style="font-size:12.5px">High pressure region</tspan></text>
    <path
       style="fill:none;fill-rule:evenodd;stroke:#0000ff;stroke-width:1px;stroke-linecap:butt;stroke-linejoin:miter;stroke-opacity:1;marker-end:url(#marker4528)"
       d="m 161.62441,451.82652 4.54568,67.17514"
       id="path4520"
       inkscape:connector-curvature="0"
       inkscape:export-xdpi="90"
       inkscape:export-ydpi="90" />
    <text
       xml:space="preserve"
       style="font-style:normal;font-weight:normal;font-size:40px;line-height:125%;font-family:sans-serif;letter-spacing:0px;word-spacing:0px;fill:#000000;fill-opacity:1;stroke:none;stroke-width:1px;stroke-linecap:butt;stroke-linejoin:miter;stroke-opacity:1"
       x="246.52739"
       y="525.99481"
       id="text4516-7"
       sodipodi:linespacing="125%"
       inkscape:export-xdpi="90"
       inkscape:export-ydpi="90"><tspan
         sodipodi:role="line"
         id="tspan4518-2"
         x="246.52739"
         y="525.99481"
         style="font-size:12.5px">Drug particle</tspan></text>
    <path
       style="fill:none;fill-rule:evenodd;stroke:#000000;stroke-width:1px;stroke-linecap:butt;stroke-linejoin:miter;stroke-opacity:1;marker-start:url(#Arrow1Lstart);marker-end:url(#marker4594)"
       d="m 385.87827,447.28083 0,158.59395 169.70563,0"
       id="path4586"
       inkscape:connector-curvature="0"
       inkscape:export-xdpi="90"
       inkscape:export-ydpi="90" />
    <text
       xml:space="preserve"
       style="font-style:normal;font-weight:normal;font-size:40px;line-height:125%;font-family:sans-serif;letter-spacing:0px;word-spacing:0px;fill:#000000;fill-opacity:1;stroke:none;stroke-width:1px;stroke-linecap:butt;stroke-linejoin:miter;stroke-opacity:1"
       x="-559.58868"
       y="376.65271"
       id="text4516-7-4"
       sodipodi:linespacing="125%"
       transform="matrix(0,-1,1,0,0,0)"
       inkscape:export-xdpi="90"
       inkscape:export-ydpi="90"><tspan
         sodipodi:role="line"
         id="tspan4518-2-6"
         x="-559.58868"
         y="376.65271"
         style="font-size:12.5px">Shear rate</tspan></text>
    <text
       xml:space="preserve"
       style="font-style:normal;font-weight:normal;font-size:40px;line-height:125%;font-family:sans-serif;letter-spacing:0px;word-spacing:0px;fill:#000000;fill-opacity:1;stroke:none;stroke-width:1px;stroke-linecap:butt;stroke-linejoin:miter;stroke-opacity:1"
       x="441.33221"
       y="623.47455"
       id="text4516-7-1"
       sodipodi:linespacing="125%"
       inkscape:export-xdpi="90"
       inkscape:export-ydpi="90"><tspan
         sodipodi:role="line"
         id="tspan4518-2-2"
         x="441.33221"
         y="623.47455"
         style="font-size:12.5px">time</tspan></text>
    <path
       style="fill:none;fill-rule:evenodd;stroke:#000000;stroke-width:1px;stroke-linecap:butt;stroke-linejoin:miter;stroke-opacity:1"
       d="m 395.9798,579.10574 c -5.58408,2.80057 -0.0569,-5.83684 1.51523,-5.05077 0.21296,0.10648 0.33671,0.33672 0.50507,0.50508 1.14109,1.14109 -0.15058,-0.30117 1.01016,2.02031 1.15576,2.31153 -0.20934,-2.14325 1.01015,1.51522 0.0532,0.15972 -0.11905,0.38603 0,0.50508 0.11905,0.11905 0.38603,-0.11905 0.50507,0 0.11905,0.11905 -0.16835,0.50508 0,0.50508 0.78967,0 0.43933,-1.31799 0.50508,-1.51523 0.0753,-0.22588 0.42978,-0.2792 0.50508,-0.50508 0,-2.29925 -0.2381,-0.0289 0.50507,-1.51523 0.2777,-0.55538 -0.48641,-1.01948 0.50508,-1.51523 0.15058,-0.0753 0.33672,0 0.50508,0 0.16835,0 0.35449,-0.0753 0.50507,0 0.21296,0.10648 0.33672,0.33672 0.50508,0.50508 0.16836,0.16836 0.373,0.30697 0.50507,0.50508 0.20883,0.31323 0.29626,0.69691 0.50508,1.01015 0.13207,0.19811 0.3986,0.29212 0.50508,0.50508 0.0753,0.15058 -0.0753,0.35449 0,0.50507 0.0657,0.1315 0.66181,0.85342 1.01015,0.50508 0.11905,-0.11905 -0.11905,-0.38603 0,-0.50508 0.11905,-0.11905 0.38603,0.11905 0.50508,0 0.11904,-0.11905 -0.0532,-0.34536 0,-0.50507 0.11904,-0.35715 0.38602,-0.65301 0.50507,-1.01016 0.0532,-0.15972 -0.0753,-0.35449 0,-0.50507 0.10648,-0.21296 0.3986,-0.29212 0.50508,-0.50508 0.15092,-0.30185 -0.33249,-1.01015 0.50507,-1.01015 0.2381,0 0.33672,0.33672 0.50508,0.50507 1.15806,1.15806 -0.21296,-0.31943 1.01015,1.51523 0.13208,0.19811 0.3986,0.29212 0.50508,0.50508 0.0753,0.15058 -0.0753,0.35449 0,0.50508 0.10648,0.21295 0.33672,0.33671 0.50508,0.50507 0.16835,0.16836 0.29211,0.3986 0.50507,0.50508 0.15059,0.0753 0.33672,0 0.50508,0 0.52251,0 0.69809,0.11905 1.01015,-0.50508 0.0753,-0.15058 -0.0753,-0.35449 0,-0.50507 0.10648,-0.21296 0.37301,-0.30697 0.50508,-0.50508 0.41764,-0.62647 0.5925,-1.39384 1.01015,-2.02031 0.13207,-0.1981 0.373,-0.30696 0.50508,-0.50507 0.31595,-0.47393 0.47526,-1.54504 1.01015,-1.01015 0.11905,0.11904 -0.0753,0.35449 0,0.50507 0.10648,0.21296 0.33672,0.33672 0.50508,0.50508 0,0.33672 -0.10648,0.69071 0,1.01015 0.014,0.0421 0.93138,0.90512 1.01015,1.01015 0.36421,0.48562 0.58092,1.086 1.01015,1.51523 0.11905,0.11905 0.35449,-0.0753 0.50508,0 0.21296,0.10648 0.29211,0.3986 0.50507,0.50508 0.0264,0.0132 1.48881,0.0132 1.51523,0 0.61794,-0.30897 0.64105,-1.02309 1.01015,-1.51523 0.28572,-0.38095 0.72444,-0.6292 1.01016,-1.01015 0.45175,-0.60234 0.5925,-1.39384 1.01015,-2.02031 0.13207,-0.19811 0.29212,-0.3986 0.50508,-0.50507 0.15058,-0.0753 0.33671,0 0.50507,0 0.16836,0 0.38603,-0.11905 0.50508,0 0.11905,0.11904 -0.0753,0.35449 0,0.50507 0.21296,0.42592 0.79719,0.58424 1.01015,1.01015 0.2381,0.47619 0.37595,0.99873 0.50508,1.51523 0.0408,0.16334 -0.0753,0.35449 0,0.50508 0.49574,0.99149 0.95984,0.22738 1.51523,0.50508 0.41068,0.20534 0.4179,0.8012 1.01015,0.50507 0.30623,-0.15311 1.80399,-1.85807 2.0203,-2.0203 0.30117,-0.22588 0.74396,-0.23888 1.01016,-0.50508 0.59523,-0.59524 0.7623,-1.64384 1.51522,-2.0203 0.15059,-0.0753 0.33672,0 0.50508,0 0.16836,0 0.33672,0 0.50508,0 0.16836,0 0.38603,-0.11905 0.50507,0 0.11905,0.11904 -0.0753,0.35449 0,0.50507 0.10648,0.21296 0.37301,0.30697 0.50508,0.50508 0.49069,0.73604 0.31532,1.052 1.01015,1.51523 0.31324,0.20882 0.69692,0.29625 1.01015,0.50507 0.19811,0.13207 0.29212,0.3986 0.50508,0.50508 0.15059,0.0753 0.33672,0 0.50508,0 0.16836,0 0.35449,0.0753 0.50507,0 0.21296,-0.10648 0.30697,-0.37301 0.50508,-0.50508 2.15411,-1.43607 -0.1643,0.66938 2.02031,-1.51523 0.33671,-0.33671 0.67343,-0.67343 1.01015,-1.01015 0.16836,-0.16836 0.29212,-0.3986 0.50507,-0.50507 0.47619,-0.2381 1.07225,-0.20976 1.51523,-0.50508 0.14009,-0.0934 -0.11904,-0.38603 0,-0.50508 0.11905,-0.11904 0.33672,0 0.50508,0 0.16836,0 0.38603,-0.11904 0.50508,0 0.11904,0.11905 -0.0753,0.35449 0,0.50508 0.21295,0.42592 0.79719,0.58423 1.01015,1.01015 0.0753,0.15059 -0.0753,0.35449 0,0.50508 0.10648,0.21296 0.373,0.30697 0.50507,0.50507 0.20883,0.31324 0.23888,0.74396 0.50508,1.01016 0.0712,0.0712 1.41162,0.0518 1.51523,0 0.21296,-0.10648 0.2792,-0.42979 0.50508,-0.50508 0.31943,-0.10648 0.69071,0.10648 1.01015,0 0.45175,-0.15058 0.58423,-0.79719 1.01015,-1.01015 0.0264,-0.0132 1.48881,-0.0132 1.51523,0 0.9726,0.4863 0.066,1.48221 1.01015,1.01015 0.9197,-0.45985 0.29607,-0.38314 0.50508,-1.01015 0.11905,-0.35714 0.38603,-0.65301 0.50507,-1.01015 0.0532,-0.15972 -0.0532,-0.34536 0,-0.50508 0.91448,-2.74342 0.37315,1.56051 1.01016,-3.53553 0.0626,-0.50118 -0.083,-1.01703 0,-1.51523 0.0875,-0.52516 0.41755,-0.99008 0.50507,-1.51523 0.083,-0.49821 0,-1.01015 0,-1.51523 0,-0.67344 0,-1.34687 0,-2.02031 0,-0.67343 -0.0835,-1.35207 0,-2.0203 0.66841,-5.34727 0.50508,1.26766 0.50508,-4.04061 0,-4.04061 0,-8.08122 0,-12.12183 0,-1.51523 0,-3.03046 0,-4.54569 0,-0.33672 0,-0.67343 0,-1.01015 0,-0.33672 -0.0817,-0.68349 0,-1.01015 0.0913,-0.36523 0.41377,-0.64493 0.50508,-1.01016 0.18288,-0.73153 -0.14616,-2.29966 0,-3.03045 0.0738,-0.36915 0.44318,-0.63882 0.50507,-1.01016 0.11071,-0.66427 -0.11071,-1.35603 0,-2.0203 0.0619,-0.37134 0.41377,-0.64493 0.50508,-1.01015 0.0993,-0.39731 0,-2.50522 0,-3.03046 0,-1.40064 -0.0753,0.80624 0.50507,-1.51523 0.0993,-0.3973 0,-2.50522 0,-3.03046 0,-0.33672 -0.0817,-0.68349 0,-1.01015 0.0913,-0.36522 0.41378,-0.64493 0.50508,-1.01015 0.0817,-0.32667 -0.066,-0.67998 0,-1.01016 0.10441,-0.52205 0.40067,-0.99317 0.50508,-1.51522 0.066,-0.33018 -0.0817,-0.68349 0,-1.01016 0.0913,-0.36522 0.43124,-0.641 0.50507,-1.01015 0.0991,-0.49527 -0.099,-1.01996 0,-1.51523 0.0738,-0.36915 0.38603,-0.65301 0.50508,-1.01015 0.0532,-0.15972 -0.0532,-0.34536 0,-0.50508 0.87173,-2.61519 0.31011,1.16978 1.01015,-3.03045 0.11071,-0.66428 -0.21296,-1.38143 0,-2.02031 0.0753,-0.22588 0.42979,-0.2792 0.50508,-0.50508 0.15597,-0.4679 -0.16132,-2.04141 0,-2.52538 0.11905,-0.35714 0.38603,-0.65301 0.50507,-1.01015 0.14175,-0.42524 -0.15035,-2.22468 0,-2.52538 0.10648,-0.21296 0.3986,-0.29212 0.50508,-0.50508 0.16182,-0.32364 -0.15683,-2.71679 0,-3.03046 0.10648,-0.21295 0.42979,-0.27919 0.50508,-0.50507 0.0985,-0.29551 0,-2.59694 0,-3.03046 0,-0.33672 0,-0.67343 0,-1.01015 0,-0.16836 -0.0753,-0.35449 0,-0.50508 0.10648,-0.21296 0.39859,-0.29212 0.50507,-0.50507 0.0913,-0.18266 0,-2.17409 0,-2.52539 0,-1.68358 0,-3.36717 0,-5.05076 0,-2.0203 0,-4.04061 0,-6.06091 0,-0.19967 -0.10785,-2.30968 0,-2.52539 0.10648,-0.21295 0.3986,-0.29211 0.50508,-0.50507 0.15873,-0.31745 -0.15873,-1.70285 0,-2.02031 0.10648,-0.21296 0.3986,-0.29211 0.50508,-0.50507 0.15931,-0.31864 -0.15932,-2.20675 0,-2.52538 0.10648,-0.21296 0.39859,-0.29212 0.50507,-0.50508 0.137,-0.274 -0.1382,-1.88211 0,-2.02031 0.11905,-0.11904 0.38603,0.11905 0.50508,0 0.23809,-0.23809 -0.15059,-0.70898 0,-1.01015 0.10648,-0.21296 0.3986,-0.29212 0.50508,-0.50507 0.15058,-0.30117 -0.2381,-0.77206 0,-1.01016 0.11904,-0.11904 0.38602,0.11905 0.50507,0 0.2381,-0.23809 -0.15058,-0.70898 0,-1.01015 0.10648,-0.21296 0.3986,-0.29212 0.50508,-0.50508 0.0753,-0.15058 -0.0753,-0.35449 0,-0.50507 0.10648,-0.21296 0.39859,-0.29212 0.50507,-0.50508 0.0753,-0.15058 -0.0753,-0.35449 0,-0.50507 0.10648,-0.21296 0.3986,-0.29212 0.50508,-0.50508 0.0753,-0.15059 -0.0753,-0.35449 0,-0.50508 0.10648,-0.21296 0.3986,-0.29211 0.50508,-0.50507 0.0753,-0.15059 -0.0753,-0.3545 0,-0.50508 0.21296,-0.42592 0.79719,-0.58423 1.01015,-1.01015 0.0753,-0.15059 -0.11905,-0.38603 0,-0.50508 0.11905,-0.11905 0.38603,0.11905 0.50508,0 0.11904,-0.11905 -0.11905,-0.38603 0,-0.50507 0.11904,-0.11905 0.38602,-0.11905 0.50507,0 0.11905,0.11904 -0.0753,0.35449 0,0.50507 0.10648,0.21296 0.33672,0.33672 0.50508,0.50508 1.67512,1.67512 -0.2381,-0.47619 0.50507,1.01015 0.10648,0.21296 0.33672,0.33672 0.50508,0.50508 0.16836,0.50507 0.26698,1.03903 0.50508,1.51523 0.10648,0.21295 0.39859,0.29211 0.50507,0.50507 0.0753,0.15059 -0.0532,0.34536 0,0.50508 0.11905,0.35714 0.43125,0.641 0.50508,1.01015 0.16509,0.82545 0,1.68359 0,2.52538 0,0.67344 0.13207,1.35995 0,2.02031 -0.10441,0.52206 -0.40067,0.99317 -0.50508,1.51523 -0.066,0.33017 0.066,0.67997 0,1.01015 -0.10441,0.52206 -0.41755,0.99007 -0.50507,1.51523 -0.083,0.4982 0.099,1.01996 0,1.51523 -0.0738,0.36915 -0.41377,0.64493 -0.50508,1.01015 -1.56167,1.18066 -0.17587,2.72378 -0.50508,4.04061 -0.0913,0.36522 -0.41377,0.64493 -0.50507,1.01015 -0.0817,0.32667 0,0.67344 0,1.01015 0,0.33672 0,0.67344 0,1.01016 0,1.01015 0,2.0203 0,3.03045 0,2.69374 0,5.38748 0,8.08122 0,0.32502 0.0855,3.19373 0,3.53554 -0.0913,0.36522 -0.38603,0.65301 -0.50508,1.01015 -0.0532,0.15972 0,0.33672 0,0.50508 0,0.33671 0,0.67343 0,1.01015 0,1.01015 0,2.0203 0,3.03046 0,0.33671 0,0.67343 0,1.01015 0,0.33672 0.0817,0.68349 0,1.01015 -0.0913,0.36522 -0.41377,0.64493 -0.50507,1.01015 -0.0817,0.32667 0,0.67344 0,1.01016 0,0.42294 0.096,2.14129 0,2.52538 -0.0913,0.36522 -0.38603,0.65301 -0.50508,1.01015 -0.0532,0.15972 0,0.33672 0,0.50508 0,0.84179 0,1.68359 0,2.52538 0,2.69374 0,5.38748 0,8.08122 0,5.7242 0,11.44839 0,17.17259 0,1.85195 0,3.7039 0,5.55584 0,0.45526 -0.10597,2.20749 0,2.52538 0.11905,0.35715 0.38603,0.65301 0.50508,1.01016 0.092,0.27609 0,3.14072 0,3.53553 0,0.16836 -0.0753,0.35449 0,0.50508 0.10647,0.21295 0.39859,0.29211 0.50507,0.50507 0.0653,0.13059 0,2.67246 0,3.03046 0,0.358 -0.0653,2.89987 0,3.03046 0.10648,0.21296 0.3986,0.29211 0.50508,0.50507 0.0913,0.18266 0,2.17408 0,2.52538 0,1.34687 0,2.69375 0,4.04062 0,0.16835 0,0.33671 0,0.50507 0,0.16836 -0.11905,0.38603 0,0.50508 0.11905,0.11905 0.38603,-0.11905 0.50507,0 0.12154,0.12153 -0.12153,1.89877 0,2.0203 0.11905,0.11905 0.38603,-0.11904 0.50508,0 0.1382,0.1382 -0.137,1.74631 0,2.02031 0.10648,0.21296 0.3986,0.29212 0.50508,0.50507 0.15058,0.30117 -0.15059,0.70899 0,1.01016 0.10648,0.21296 0.39859,0.29211 0.50507,0.50507 0.15059,0.30117 -0.23809,0.77206 0,1.01016 0.11905,0.11904 0.38603,-0.11905 0.50508,0 0.23809,0.23809 -0.15059,0.70898 0,1.01015 0.10648,0.21296 0.3986,0.29212 0.50508,0.50507 0.15058,0.30117 -0.2381,0.77206 0,1.01016 0.11904,0.11904 0.38602,-0.11905 0.50507,0 0.2381,0.23809 -0.23809,0.77205 0,1.01015 0.11905,0.11905 0.38603,0.11905 0.50508,0 0.11905,-0.11905 -0.11905,-0.38603 0,-0.50508 0.11905,-0.11904 0.35449,0.0753 0.50507,0 0.57903,-0.28951 0.70257,-1.05384 1.01016,-1.51523 0.13207,-0.1981 0.33671,-0.33671 0.50507,-0.50507 0.33672,-0.33672 0.58424,-0.7972 1.01016,-1.01015 0.32676,-0.16338 1.83887,0.18143 2.0203,0 0.11905,-0.11905 -0.0753,-0.3545 0,-0.50508 0.21296,-0.42592 0.79719,-0.58424 1.01015,-1.01015 0.15093,-0.30185 -0.33248,-1.01016 0.50508,-1.01016 0.99458,0 0.22732,1.74255 0.50508,2.02031 0.11904,0.11905 0.38602,0.11905 0.50507,0 0.11905,-0.11905 -0.0753,-0.35449 0,-0.50508 0.21296,-0.42591 0.74601,-0.61394 1.01015,-1.01015 0.20883,-0.31323 0.29626,-0.69692 0.50508,-1.01015 0.13207,-0.19811 0.3986,-0.29212 0.50508,-0.50508 0.0753,-0.15058 -0.11905,-0.38603 0,-0.50507 0.11904,-0.11905 0.33671,0 0.50507,0 0.16836,0 0.33672,0 0.50508,0 1.01015,0 0.16836,-0.16836 0.50508,0.50507 0.10648,0.21296 0.39859,0.29212 0.50507,0.50508 0.0753,0.15058 -0.0753,0.35449 0,0.50507 0.10648,0.21296 0.3986,0.29212 0.50508,0.50508 0.0753,0.15058 -0.11905,0.38603 0,0.50508 0.11905,0.11904 0.35449,-0.0753 0.50507,0 0.21296,0.10648 0.26699,0.50507 0.50508,0.50507 0.2381,0 0.29212,-0.39859 0.50508,-0.50507 0.15058,-0.0753 0.35449,0.0753 0.50507,0 0.24344,-0.12172 2.00991,-2.00645 2.02031,-2.02031 0.89791,-1.19722 -0.0561,-0.99144 1.51523,-1.51523 0.96881,-0.32294 0.29851,0.59704 0.50507,1.01016 0.10648,0.21295 0.3986,0.29211 0.50508,0.50507 0.15058,0.30117 -0.2381,0.77206 0,1.01015 0.0712,0.0712 1.41162,0.0518 1.51523,0 0.21296,-0.10648 0.31133,-0.36668 0.50508,-0.50507 1.01015,-0.67344 2.0203,-1.34687 3.03045,-2.02031 0.16836,0 0.35449,0.0753 0.50508,0 0.21296,-0.10648 0.29212,-0.39859 0.50508,-0.50507 0.49544,-0.24773 0.73636,0.23128 1.01015,0.50507 0.16836,0.16836 0.39859,0.29212 0.50507,0.50508 0.20203,0.40406 -0.20203,1.11117 0,1.51523 0.10648,0.21296 0.29212,0.39859 0.50508,0.50507 0.68511,0.34256 1.07113,-0.74369 1.51523,-1.01015 0.64563,-0.38737 1.37468,-0.62278 2.0203,-1.01015 0.20417,-0.1225 0.30697,-0.37301 0.50508,-0.50508 0.31324,-0.20882 0.67344,-0.33671 1.01015,-0.50507 0.33672,-0.16836 0.65301,-0.38603 1.01016,-0.50508 0.15971,-0.0532 0.33671,0 0.50507,0 0.16836,0 0.38603,-0.11905 0.50508,0 0.11905,0.11905 0,0.33672 0,0.50508 0,0.84179 0,1.68358 0,2.52538 0,0.16836 -0.11905,0.38603 0,0.50507 0.40645,0.40646 0.86222,-0.45576 1.01015,-0.50507 0.31944,-0.10648 0.69072,0.10648 1.01015,0 0.22588,-0.0753 0.30697,-0.37301 0.50508,-0.50508 0.31323,-0.20882 0.65301,-0.38603 1.01015,-0.50507 0.65854,-0.21952 1.37579,-0.24728 2.02031,-0.50508 0.22106,-0.0884 0.26698,-0.50508 0.50507,-0.50508 0.2381,0 0.33672,0.33672 0.50508,0.50508 0.57788,0.57788 0.70437,0.59789 1.01015,1.51523 0.0655,0.19653 -0.0784,1.43685 0,1.51523 0.11905,0.11904 0.33672,0 0.50508,0 0.16836,0 0.35449,0.0753 0.50507,0 0.21296,-0.10648 0.2792,-0.42979 0.50508,-0.50508 2.18679,-0.72893 -0.18564,0.96555 2.02031,-0.50508 0.1981,-0.13207 0.30091,-0.38257 0.50507,-0.50507 1.93456,-1.16074 1.44042,-1.01015 3.03046,-1.01015 0.16836,0 0.33672,0 0.50508,0 0.16836,0 0.35449,-0.0753 0.50507,0 0.21296,0.10647 0.3986,0.29211 0.50508,0.50507 0.0664,0.13281 0,1.75619 0,2.02031 0,0.16836 -0.11905,0.38603 0,0.50507 0.40645,0.40646 0.86222,-0.45576 1.01015,-0.50507 0.31944,-0.10648 0.69072,0.10648 1.01015,0 0.22588,-0.0753 0.30697,-0.37301 0.50508,-0.50508 0.9099,-0.6066 1.97462,-0.79898 3.03046,-1.01015 0.2408,-0.0482 1.89579,-0.0623 2.0203,0 0.21296,0.10648 0.29212,0.39859 0.50508,0.50507 0.15058,0.0753 0.38603,-0.11904 0.50508,0 0.11904,0.11905 -0.0753,0.3545 0,0.50508 0.10648,0.21296 0.33671,0.33672 0.50507,0.50508 0.16836,0.16836 0.26698,0.50507 0.50508,0.50507 0.23809,0 0.29212,-0.39859 0.50507,-0.50507 0.15059,-0.0753 0.33672,0 0.50508,0 0.33672,-0.16836 0.69692,-0.29626 1.01015,-0.50508 0.19811,-0.13207 0.33672,-0.33672 0.50508,-0.50508 0.50508,-0.50507 0.90273,-1.14773 1.51523,-1.51522 0.28873,-0.17324 0.68349,0.0817 1.01015,0 0.36522,-0.0913 0.65301,-0.38603 1.01015,-0.50508 0.2507,-0.0836 1.47222,-0.043 1.51523,0 0.11905,0.11905 -0.0532,0.34536 0,0.50508 0.11905,0.35714 0.38603,0.653 0.50508,1.01015 0.10648,0.31944 -0.15059,0.70898 0,1.01015 0.10648,0.21296 0.3986,0.29212 0.50507,0.50508 0.15059,0.30117 -0.23809,0.77205 0,1.01015 0.11905,0.11905 0.33672,0 0.50508,0 0.16836,0 0.34536,0.0532 0.50508,0 3.65848,-1.21949 -0.79631,0.14561 1.51523,-1.01015 1.1151,-0.55755 1.88052,-0.50508 3.03045,-0.50508 0.16836,0 0.33672,0 0.50508,0 0.16836,0 0.38603,-0.11905 0.50508,0 0.11904,0.11905 -0.0753,0.35449 0,0.50508 0.10648,0.21296 0.33671,0.33671 0.50507,0.50507 0.57789,0.57789 0.70438,0.5979 1.01016,1.51523 0.209,0.62701 -0.41463,0.5503 0.50507,1.01015 0.0418,0.0209 1.45024,0.0217 1.51523,0 1.74111,-0.58036 0.37414,-0.50507 1.51523,-0.50507"
       id="path4694"
       inkscape:connector-curvature="0"
       inkscape:export-xdpi="90"
       inkscape:export-ydpi="90" />
  </g>
</svg>
